<?xml version="1.0" encoding="UTF-8"?>
<svg id="Layer_1" data-name="Layer 1" xmlns="http://www.w3.org/2000/svg" viewBox="0 0 1810.512 325.989">
  <defs>
    <style>
      .cls-1 {
        fill: #fff;
      }
    </style>
  </defs>
  <g>
    <path class="cls-1" d="M499.322,7.663h28.234c1.544,0,2.932.944,3.498,2.381l94.336,239.208h-40.151l-25.52-65.671h-93.233l-25.18,65.671h-40.492L495.826,10.035c.569-1.432,1.954-2.372,3.495-2.372ZM552.232,155.338l-35.329-94.519c-1.211-3.239-5.782-3.265-7.03-.04l-36.583,94.559h78.942Z"/>
    <path class="cls-1" d="M712.834,252.655c-12.026,0-23.138-2.441-33.346-7.316-10.208-4.876-19.055-11.511-26.541-19.906-7.486-8.389-13.329-18.204-17.524-29.433-4.2-11.228-6.295-23.307-6.295-36.238,0-12.472,1.983-24.212,5.954-35.217,3.966-11.001,9.528-20.697,16.673-29.093,7.146-8.389,15.535-15.024,25.18-19.905,9.639-4.876,20.246-7.316,31.815-7.316,14.291,0,26.881,3.461,37.77,10.377,10.889,6.923,19.395,15.711,25.52,26.371V4.618c0-2.077,1.684-3.761,3.761-3.761h29.907c2.077,0,3.761,1.684,3.761,3.761v200.399c0,4.312.734,7.374,2.212,9.188,1.473,1.818,4.136,2.839,7.996,3.062v31.986c-3.86.681-6.975,1.132-9.357,1.361-2.382.223-4.37.34-5.954.34-7.486,0-13.611-1.924-18.374-5.784-4.764-3.855-7.374-8.847-7.826-14.972l-.681-13.271c-6.582,11.118-15.54,19.853-26.881,26.201-11.346,6.347-23.936,9.528-37.77,9.528ZM722.021,220.67c5.445,0,10.889-.903,16.333-2.723,5.444-1.813,10.431-4.307,14.972-7.486,4.535-3.173,8.448-6.917,11.739-11.228,3.286-4.307,5.614-8.959,6.975-13.951v-46.617c-2.042-5.667-4.934-10.888-8.677-15.652-3.743-4.763-7.996-8.846-12.76-12.249-4.764-3.402-9.815-6.008-15.142-7.826-5.333-1.813-10.718-2.723-16.163-2.723-7.486,0-14.35,1.702-20.586,5.105-6.242,3.402-11.628,7.943-16.163,13.61-4.541,5.673-8.113,12.138-10.718,19.395-2.611,7.263-3.913,14.749-3.913,22.458,0,8.167,1.415,15.881,4.253,23.138,2.834,7.263,6.747,13.61,11.739,19.054,4.987,5.445,10.718,9.757,17.183,12.931,6.465,3.179,13.44,4.763,20.926,4.763Z"/>
    <path class="cls-1" d="M922.435,250.953c-12.026,0-23.026-2.435-33.005-7.316-9.985-4.876-18.545-11.511-25.69-19.905-7.146-8.391-12.707-18.035-16.673-28.924-3.971-10.888-5.954-22.34-5.954-34.367,0-12.701,2.041-24.669,6.125-35.898,4.083-11.228,9.751-20.979,17.013-29.263,7.258-8.278,15.935-14.854,26.03-19.735,10.091-4.876,21.267-7.316,33.516-7.316,14.291,0,26.823,3.402,37.6,10.207,10.772,6.806,19.677,15.652,26.71,26.542v-29.926c0-2.077,1.684-3.761,3.761-3.761h25.484c2.077,0,3.761,1.684,3.761,3.761v169.095c0,12.93-2.382,24.382-7.146,34.367-4.763,9.98-11.399,18.428-19.905,25.349-8.507,6.918-18.545,12.192-30.114,15.823-11.569,3.626-24.047,5.445-37.429,5.445-19.735,0-36.126-3.351-49.168-10.038-13.047-6.694-23.989-16.052-32.836-28.072l21.096-19.735c6.805,9.527,15.594,16.784,26.371,21.777,10.772,4.986,22.288,7.485,34.537,7.485,7.709,0,15.025-1.02,21.947-3.062,6.917-2.042,12.984-5.221,18.204-9.528,5.216-4.312,9.358-9.756,12.42-16.333,3.062-6.581,4.594-14.407,4.594-23.477v-27.222c-6.354,10.889-15.089,19.285-26.201,25.18-11.117,5.902-22.798,8.847-35.048,8.847ZM934.685,220.67c5.667,0,11.112-.962,16.333-2.893,5.216-1.924,10.038-4.534,14.461-7.826,4.423-3.286,8.219-7.028,11.398-11.228,3.174-4.195,5.445-8.677,6.806-13.44v-46.617c-2.27-5.667-5.221-10.83-8.847-15.482-3.632-4.646-7.773-8.676-12.42-12.079-4.652-3.403-9.585-6.066-14.801-7.996-5.221-1.924-10.437-2.893-15.652-2.893-8.167,0-15.482,1.76-21.947,5.275-6.465,3.52-11.968,8.167-16.503,13.951-4.54,5.784-8.055,12.308-10.548,19.565-2.499,7.263-3.743,14.749-3.743,22.458,0,8.167,1.415,15.823,4.253,22.968,2.834,7.146,6.747,13.388,11.739,18.714,4.987,5.333,10.83,9.587,17.524,12.761,6.688,3.179,14.004,4.763,21.947,4.763Z"/>
    <path class="cls-1" d="M1141.566,252.655c-13.839,0-26.429-2.441-37.77-7.316-11.346-4.876-21.043-11.511-29.093-19.906-8.054-8.389-14.291-18.145-18.714-29.263-4.424-11.112-6.635-22.909-6.635-35.388s2.211-24.328,6.635-35.558c4.423-11.228,10.66-21.096,18.714-29.603,8.05-8.507,17.747-15.195,29.093-20.075,11.341-4.876,24.042-7.316,38.11-7.316,13.833,0,26.371,2.499,37.6,7.486,11.228,4.992,20.809,11.627,28.754,19.905,7.938,8.284,14.002,17.922,18.204,28.923,4.194,11.005,6.295,22.516,6.295,34.537,0,2.723-.118,5.275-.34,7.656-.088.925-.177,1.79-.266,2.596-.21,1.911-1.817,3.36-3.74,3.36h-135.024c-2.277,0-4.061,2.014-3.732,4.266.912,6.256,2.62,11.98,5.124,17.17,3.062,6.352,7.028,11.856,11.909,16.502,4.875,4.652,10.431,8.225,16.673,10.719,6.236,2.499,12.76,3.742,19.565,3.742,4.987,0,9.921-.622,14.803-1.871,4.875-1.245,9.355-3.063,13.439-5.445,4.084-2.381,7.71-5.274,10.888-8.676,2.46-2.636,4.51-5.476,6.154-8.52.842-1.559,2.64-2.334,4.344-1.845l24.627,7.074c2.289.657,3.43,3.267,2.297,5.362-6.24,11.533-15.711,21.103-28.405,28.722-14.179,8.507-30.683,12.761-49.508,12.761ZM1191.405,146.832c2.296,0,4.086-2.046,3.729-4.314-.922-5.848-2.615-11.327-5.08-16.442-3.06-6.349-6.975-11.739-11.737-16.163-4.765-4.423-10.325-7.879-16.673-10.377-6.354-2.494-13.047-3.744-20.077-3.744s-13.669,1.25-19.905,3.744c-6.242,2.499-11.74,5.954-16.503,10.377-4.763,4.424-8.623,9.814-11.569,16.163-2.377,5.117-4.016,10.6-4.919,16.452-.35,2.265,1.438,4.304,3.73,4.304h99.006Z"/>
    <path class="cls-1" d="M1417.857,249.252h-37.429v-99.698c0-16.785-2.669-28.976-7.996-36.579-5.333-7.597-13.218-11.4-23.649-11.4-5.444,0-10.888,1.021-16.332,3.063-5.445,2.042-10.549,4.933-15.312,8.677-4.765,3.742-9.017,8.167-12.76,13.27-3.744,5.104-6.636,10.718-8.677,16.844v105.822h-37.429V75.053c0-2.077,1.684-3.761,3.761-3.761h26.505c2.077,0,3.761,1.684,3.761,3.761v31.968c6.805-12.021,16.673-21.491,29.603-28.413,12.93-6.917,27.221-10.377,42.873-10.377,10.66,0,19.396,1.929,26.201,5.784,6.805,3.86,12.19,9.134,16.162,15.823,3.966,6.694,6.748,14.407,8.337,23.138,1.585,8.735,2.382,17.981,2.382,27.731v108.545Z"/>
    <path class="cls-1" d="M1553.622,240.064c-4.763,2.271-11.346,4.822-19.735,7.656-8.395,2.834-17.354,4.254-26.881,4.254-5.902,0-11.458-.798-16.673-2.382-5.221-1.584-9.814-3.966-13.781-7.146-3.971-3.174-7.093-7.316-9.358-12.419-2.27-5.105-3.402-11.282-3.402-18.545v-111.267h-23.479v-28.923h23.479V16.528c0-2.077,1.684-3.761,3.761-3.761h29.908c2.077,0,3.761,1.684,3.761,3.761v54.764h38.79v28.923h-38.79v99.359c.452,6.354,2.435,10.947,5.954,13.781,3.513,2.839,7.879,4.253,13.1,4.253s10.207-.903,14.972-2.721c4.763-1.813,8.278-3.286,10.548-4.424l7.826,29.603Z"/>
    <path class="cls-1" d="M1574.375,42.029V4.618c0-2.077,1.684-3.761,3.761-3.761h29.908c2.077,0,3.761,1.684,3.761,3.761v37.411h-37.429ZM1574.375,249.252V71.292h37.429v177.96h-37.429Z"/>
    <path class="cls-1" d="M1640.043,160.102c0-12.472,2.152-24.271,6.465-35.388,4.305-11.112,10.489-20.867,18.544-29.263,8.049-8.389,17.747-15.024,29.093-19.905,11.341-4.876,24.042-7.316,38.11-7.316,18.374,0,34.196,4.03,47.467,12.079,11.899,7.223,21.107,16.587,27.627,28.094,1.174,2.071.117,4.706-2.152,5.427l-29.314,9.314c-1.602.509-3.352-.107-4.269-1.517-4.126-6.342-9.42-11.379-15.88-15.118-7.263-4.195-15.312-6.296-24.159-6.296-7.486,0-14.461,1.479-20.926,4.424-6.465,2.95-12.08,7.092-16.844,12.419-4.763,5.333-8.507,11.627-11.228,18.886-2.723,7.262-4.084,15.311-4.084,24.158,0,8.624,1.414,16.621,4.254,23.989,2.833,7.374,6.688,13.781,11.569,19.225,4.876,5.445,10.549,9.698,17.014,12.761,6.465,3.062,13.323,4.593,20.586,4.593,4.534,0,9.07-.622,13.61-1.872,4.536-1.244,8.677-3.004,12.419-5.274,3.744-2.265,7.029-4.876,9.868-7.826,2.036-2.116,3.693-4.352,4.969-6.706.865-1.596,2.68-2.42,4.421-1.905l29.416,8.716c2.25.667,3.377,3.225,2.292,5.305-6.027,11.561-15.245,21.153-27.658,28.785-13.839,8.507-30.172,12.761-48.998,12.761-13.839,0-26.429-2.5-37.77-7.486-11.346-4.987-21.044-11.74-29.093-20.247-8.055-8.506-14.291-18.315-18.714-29.433-4.424-11.112-6.635-22.909-6.635-35.388Z"/>
  </g>
  <path class="cls-1" d="M305.136,127.903c0-.011,0-.022,0-.033-18.934-.056-37.944-8.644-50.015-25.854-7.528-10.733-10.88-22.869-10.762-34.8-.005,0-.01,0-.014,0,.093-34.029-29.152-63.962-67.837-60.406-32.116,2.953-53.441,31.06-53.731,60.406-.005,0-.009,0-.014,0-.024,10.326-2.747,21.03-8.731,31.29-11.46,19.65-31.708,29.444-52.046,29.389,0,.003,0,.006,0,.009-2.314-.029-4.669.062-7.06.281-45.173,4.153-69.012,58.072-42.968,95.206,25.039,35.702,79.944,34.413,102.075-3.535,5.985-10.263,8.708-20.97,8.731-31.298h.014c.306-29.334,21.627-57.421,53.73-60.373,2.386-.219,4.736-.31,7.046-.282,0-.011,0-.022,0-.033.005,0,.009,0,.014,0,0,.011,0,.022,0,.033,35.116.442,60.847,28.742,60.777,60.654h.014c-.125,11.942,3.227,24.09,10.762,34.833,25.039,35.702,79.944,34.413,102.075-3.535,24.481-41.978-5.571-91.378-52.061-91.953Z"/>
</svg>